<?xml version="1.0" standalone="no"?>
<!DOCTYPE svg PUBLIC "-//W3C//DTD SVG 20010904//EN"
 "http://www.w3.org/TR/2001/REC-SVG-20010904/DTD/svg10.dtd">
<svg version="1.0" xmlns="http://www.w3.org/2000/svg"
 width="129.000000pt" height="129.000000pt" viewBox="0 0 129.000000 129.000000"
 preserveAspectRatio="xMidYMid meet">
<metadata>
Created by potrace 1.14, written by Peter Selinger 2001-2017
</metadata>
<g transform="translate(0.000000,129.000000) scale(0.100000,-0.100000)"
fill="#000000" stroke="none">
<path d="M456 1238 c-27 -4 -65 -8 -85 -9 -20 -2 -41 -6 -46 -10 -6 -4 -24 -9
-40 -12 -64 -10 -73 -17 -71 -53 1 -22 -3 -34 -11 -34 -7 0 -13 7 -13 15 0 26
-34 16 -60 -17 -14 -17 -23 -34 -22 -36 2 -3 0 -8 -5 -11 -11 -8 -36 -62 -37
-81 -1 -8 -5 -20 -9 -27 -25 -39 -30 -602 -6 -587 4 2 10 -13 14 -34 4 -20 11
-43 17 -49 6 -7 7 -13 3 -13 -5 0 -1 -8 8 -17 8 -10 17 -25 19 -33 2 -8 14
-23 28 -32 14 -10 21 -18 15 -18 -5 0 7 -9 28 -19 20 -9 34 -21 30 -26 -5 -4
-3 -5 3 -2 6 3 22 0 36 -7 23 -12 57 -21 131 -33 32 -5 58 12 50 33 -3 9 1 14
12 14 10 0 15 -5 12 -13 -11 -29 12 -41 90 -46 78 -6 288 3 353 14 19 4 52 9
73 12 20 3 37 9 37 14 0 5 7 9 16 9 20 0 81 36 109 65 37 37 75 127 82 195 3
25 9 54 13 65 9 26 -8 75 -26 75 -8 0 -14 8 -14 17 0 9 3 13 6 10 4 -3 15 -2
24 3 16 9 18 25 15 159 -1 82 -5 154 -9 159 -3 5 -7 30 -7 56 -1 25 -6 46 -11
46 -4 0 -8 9 -8 19 0 41 -72 151 -100 151 -5 0 -10 4 -10 8 0 5 -10 13 -22 19
-13 6 -36 16 -51 24 -25 12 -30 11 -38 -4 -13 -23 -29 -22 -29 3 0 21 -10 25
-105 36 -80 9 -330 11 -389 2z"/>
</g>
</svg>
